<svg viewBox="0 0 747.9599999999999 188" xmlns="http://www.w3.org/2000/svg"
    xmlns:xlink="http://www.w3.org/1999/xlink">
    <style>
        text {
        fill: rgb(0,0,0);
        stroke-width: 0;
        }
        text.uppertype {
        font-style: "italic";
        fill: rgb(0,0,0);
        stroke-width: 0;
        }
        .opcua {
        fill: rgb(232, 237, 247);
        stroke: rgb(0, 0, 0);
        stroke-width: 1px; // Note that the value of a pixel depend on the viewBox
        }
        .opcua-shadow {
        fill: rgb(153, 153, 153);
        stroke: rgb(153, 153, 153);
        stroke-width: 0px;
        }
    </style>
    <g id="graph0" class="graph" transform="translate(4 184)">
        <title>G</title>

        <!-- _RoboticEquipment -->
        <!-- #ObjectType -->
        <g id="node1" class="node">
            <title>_RoboticEquipment</title>
            <g transform="translate(178.42,-180)">
                <rect x="5" y="5" width="199.16" height="36" class="opcua-shadow"></rect>
                <rect x="0" y="0" width="199.16" height="36" class="opcua"></rect>
            </g>
            <text text-anchor="start" x="221.62" y="-157.8" font-family="Times,serif"
                font-size="14.00"> RoboticEquipment </text>
        </g>
        <!-- r0_0 -->
        <!-- #Variable -->
        <!-- _RoboticEquipment&#45;&gt;r0_0 -->
        <g id="edge18" class="edge">
            <title>_RoboticEquipment->r0_0</title>
            <path fill="none" stroke="black" d="M278,-143.92C278,-133.02 278,-120.65 278,-119.15"></path>
        </g>
        <!-- _RoboticEquipment_Sensor -->
        <!-- #Object -->
        <g id="node2" class="node">
            <title>_RoboticEquipment_Sensor</title>
            <g transform="translate(489.56,-136)">
                <rect x="0" y="0" width="148.88000000000005" height="36" class="opcua"></rect>
            </g>
            <text text-anchor="start" x="532.76" y="-120.4" font-family="Times,serif"
                font-size="14.00"> </text>
            <text text-anchor="start" x="536.26" y="-120.4" font-family="Times,serif"
                font-style="italic" font-size="9.00">BaseObjectType</text>
            <text text-anchor="start" x="543.19" y="-106.4" font-family="Times,serif"
                font-size="14.00">Sensor </text>
        </g>
        <!-- r1_0 -->
        <!-- #Variable -->
        <!-- _RoboticEquipment_Sensor&#45;&gt;r1_0 -->
        <g id="edge5" class="edge">
            <title>_RoboticEquipment_Sensor->r1_0</title>
            <path fill="none" stroke="black" d="M564,-99.73C564,-87.83 564,-73.87 564,-72.17"></path>
        </g>
        <!-- _RoboticEquipment_Motor1 -->
        <!-- #Object -->
        <g id="node3" class="node">
            <title>_RoboticEquipment_Motor1</title>
            <g transform="translate(111.56,-136)">
                <rect x="0" y="0" width="148.88" height="36" class="opcua"></rect>
            </g>
            <text text-anchor="start" x="154.76" y="-120.4" font-family="Times,serif"
                font-size="14.00"> </text>
            <text text-anchor="start" x="158.26" y="-120.4" font-family="Times,serif"
                font-style="italic" font-size="9.00">BaseObjectType</text>
            <text text-anchor="start" x="163.25" y="-106.4" font-family="Times,serif"
                font-size="14.00">Motor1 </text>
        </g>
        <!-- _RoboticEquipment_Motor1&#45;&gt;r0_0 -->
        <!-- HasComponent -->
        <g id="edge17" class="edge">
            <title>_RoboticEquipment_Motor1->r0_0</title>
            <path fill="none" stroke="black" d="M275.61,-118C276.32,-118 277.02,-118 277.73,-118"></path>
            <polyline fill="none" stroke="black" points="260.75,-118 265.75,-118"></polyline>
            <polygon fill="black" stroke="black"
                points="266.75,-123 266.75,-113 268.75,-113 268.75,-123 266.75,-123"></polygon>
            <polyline fill="none" stroke="black" points="265.75,-118 270.75,-118"></polyline>
            <polygon fill="black" stroke="black"
                points="271.75,-123 271.75,-113 273.75,-113 273.75,-123 271.75,-123"></polygon>
            <polyline fill="none" stroke="black" points="270.75,-118 275.75,-118"></polyline>
        </g>
        <!-- r2_0 -->
        <!-- #Variable -->
        <!-- _RoboticEquipment_Motor1&#45;&gt;r2_0 -->
        <g id="edge14" class="edge">
            <title>_RoboticEquipment_Motor1->r2_0</title>
            <path fill="none" stroke="black" d="M186,-99.73C186,-87.83 186,-73.87 186,-72.17"></path>
        </g>
        <!-- _RoboticEquipment_Sensor_Temperature -->
        <!-- #Variable -->
        <g id="node4" class="node">
            <title>_RoboticEquipment_Sensor_Temperature</title>
            <path fill="#e8edf7" stroke="black"
                d="M727.96,-92C727.96,-92 594.04,-92 594.04,-92 588.04,-92 582.04,-86 582.04,-80 582.04,-80 582.04,-62 582.04,-62 582.04,-56 588.04,-50 594.04,-50 594.04,-50 727.96,-50 727.96,-50 733.96,-50 739.96,-56 739.96,-62 739.96,-62 739.96,-80 739.96,-80 739.96,-86 733.96,-92 727.96,-92"></path>
            <text text-anchor="start" x="629.51" y="-80.4" font-family="Times,serif"
                font-size="14.00"> </text>
            <text text-anchor="start" x="633.01" y="-80.4" font-family="Times,serif"
                font-style="italic" font-size="9.00">AnalogItemType</text>
            <text text-anchor="start" x="625.24" y="-66.4" font-family="Times,serif"
                font-size="14.00">Temperature</text>
            <text text-anchor="start" x="651" y="-52.4" font-family="Times,serif" font-size="9.00">
                (C)</text>
            <text text-anchor="start" x="667.5" y="-52.4" font-family="Times,serif"
                font-size="14.00"> </text>
        </g>
        <!-- _RoboticEquipment_Sensor_Pressure -->
        <!-- #Variable -->
        <g id="node5" class="node">
            <title>_RoboticEquipment_Sensor_Pressure</title>
            <path fill="#e8edf7" stroke="black"
                d="M533.69,-92C533.69,-92 408.31,-92 408.31,-92 402.31,-92 396.31,-86 396.31,-80 396.31,-80 396.31,-62 396.31,-62 396.31,-56 402.31,-50 408.31,-50 408.31,-50 533.69,-50 533.69,-50 539.69,-50 545.69,-56 545.69,-62 545.69,-62 545.69,-80 545.69,-80 545.69,-86 539.69,-92 533.69,-92"></path>
            <text text-anchor="start" x="439.51" y="-80.4" font-family="Times,serif"
                font-size="14.00"> </text>
            <text text-anchor="start" x="443.01" y="-80.4" font-family="Times,serif"
                font-style="italic" font-size="9.00">AnalogItemType</text>
            <text text-anchor="start" x="447.28" y="-66.4" font-family="Times,serif"
                font-size="14.00">Pressure</text>
            <text text-anchor="start" x="460.51" y="-52.4" font-family="Times,serif"
                font-size="9.00">(bar)</text>
            <text text-anchor="start" x="477.99" y="-52.4" font-family="Times,serif"
                font-size="14.00"> </text>
        </g>
        <!-- _RoboticEquipment_Sensor_Pressure&#45;&gt;r1_0 -->
        <!-- HasComponent -->
        <g id="edge3" class="edge">
            <title>_RoboticEquipment_Sensor_Pressure->r1_0</title>
            <path fill="none" stroke="black" d="M560.64,-71C561.67,-71 562.69,-71 563.72,-71"></path>
            <polyline fill="none" stroke="black" points="545.84,-71 550.84,-71"></polyline>
            <polygon fill="black" stroke="black"
                points="551.84,-76 551.84,-66 553.84,-66 553.84,-76 551.84,-76"></polygon>
            <polyline fill="none" stroke="black" points="550.84,-71 555.84,-71"></polyline>
            <polygon fill="black" stroke="black"
                points="556.84,-76 556.84,-66 558.84,-66 558.84,-76 556.84,-76"></polygon>
            <polyline fill="none" stroke="black" points="555.84,-71 560.84,-71"></polyline>
        </g>
        <!-- _RoboticEquipment_Motor1_State -->
        <!-- #Variable -->
        <g id="node6" class="node">
            <title>_RoboticEquipment_Motor1_State</title>
            <path fill="#e8edf7" stroke="black"
                d="M366.19,-89C366.19,-89 215.81,-89 215.81,-89 209.81,-89 203.81,-83 203.81,-77 203.81,-77 203.81,-65 203.81,-65 203.81,-59 209.81,-53 215.81,-53 215.81,-53 366.19,-53 366.19,-53 372.19,-53 378.19,-59 378.19,-65 378.19,-65 378.19,-77 378.19,-77 378.19,-83 372.19,-89 366.19,-89"></path>
            <text text-anchor="start" x="247.01" y="-73.4" font-family="Times,serif"
                font-size="14.00"> </text>
            <text text-anchor="start" x="250.51" y="-73.4" font-family="Times,serif"
                font-style="italic" font-size="9.00">BaseDataVariableType</text>
            <text text-anchor="start" x="275.25" y="-59.4" font-family="Times,serif"
                font-size="14.00">State </text>
        </g>
        <!-- _RoboticEquipment_Motor1_Speed -->
        <!-- #Variable -->
        <g id="node7" class="node">
            <title>_RoboticEquipment_Motor1_Speed</title>
            <path fill="#e8edf7" stroke="black"
                d="M365.94,-42C365.94,-42 216.06,-42 216.06,-42 210.06,-42 204.06,-36 204.06,-30 204.06,-30 204.06,-12 204.06,-12 204.06,-6 210.06,0 216.06,0 216.06,0 365.94,0 365.94,0 371.94,0 377.94,-6 377.94,-12 377.94,-12 377.94,-30 377.94,-30 377.94,-36 371.94,-42 365.94,-42"></path>
            <text text-anchor="start" x="259.51" y="-30.4" font-family="Times,serif"
                font-size="14.00"> </text>
            <text text-anchor="start" x="263.01" y="-30.4" font-family="Times,serif"
                font-style="italic" font-size="9.00">AnalogItemType</text>
            <text text-anchor="start" x="273.89" y="-16.4" font-family="Times,serif"
                font-size="14.00">Speed</text>
            <text text-anchor="start" x="247.26" y="-2.4" font-family="Times,serif" font-size="9.00">(revolution
                per minute)</text>
            <text text-anchor="start" x="331.24" y="-2.4" font-family="Times,serif"
                font-size="14.00"> </text>
        </g>
        <!-- _RoboticEquipment_Motor1_IsRunning -->
        <!-- #Variable -->
        <g id="node8" class="node">
            <title>_RoboticEquipment_Motor1_IsRunning</title>
            <path fill="#e8edf7" stroke="black"
                d="M155.69,-89C155.69,-89 30.31,-89 30.31,-89 24.31,-89 18.31,-83 18.31,-77 18.31,-77 18.31,-65 18.31,-65 18.31,-59 24.31,-53 30.31,-53 30.31,-53 155.69,-53 155.69,-53 161.69,-53 167.69,-59 167.69,-65 167.69,-65 167.69,-77 167.69,-77 167.69,-83 161.69,-89 155.69,-89"></path>
            <text text-anchor="start" x="61.51" y="-73.4" font-family="Times,serif"
                font-size="14.00"> </text>
            <text text-anchor="start" x="65.01" y="-73.4" font-family="Times,serif"
                font-style="italic" font-size="9.00">AnalogItemType</text>
            <text text-anchor="start" x="62.08" y="-59.4" font-family="Times,serif"
                font-size="14.00">IsRunning </text>
        </g>
        <!-- _RoboticEquipment_Motor1_IsRunning&#45;&gt;r2_0 -->
        <!-- HasComponent -->
        <g id="edge10" class="edge">
            <title>_RoboticEquipment_Motor1_IsRunning->r2_0</title>
            <path fill="none" stroke="black" d="M182.64,-71C183.67,-71 184.69,-71 185.72,-71"></path>
            <polyline fill="none" stroke="black" points="167.84,-71 172.84,-71"></polyline>
            <polygon fill="black" stroke="black"
                points="173.84,-76 173.84,-66 175.84,-66 175.84,-76 173.84,-76"></polygon>
            <polyline fill="none" stroke="black" points="172.84,-71 177.84,-71"></polyline>
            <polygon fill="black" stroke="black"
                points="178.84,-76 178.84,-66 180.84,-66 180.84,-76 178.84,-76"></polygon>
            <polyline fill="none" stroke="black" points="177.84,-71 182.84,-71"></polyline>
        </g>
        <!-- _RoboticEquipment_Motor1_Torque -->
        <!-- #Variable -->
        <g id="node9" class="node">
            <title>_RoboticEquipment_Motor1_Torque</title>
            <path fill="#e8edf7" stroke="black"
                d="M155.69,-42C155.69,-42 30.31,-42 30.31,-42 24.31,-42 18.31,-36 18.31,-30 18.31,-30 18.31,-12 18.31,-12 18.31,-6 24.31,0 30.31,0 30.31,0 155.69,0 155.69,0 161.69,0 167.69,-6 167.69,-12 167.69,-12 167.69,-30 167.69,-30 167.69,-36 161.69,-42 155.69,-42"></path>
            <text text-anchor="start" x="61.51" y="-30.4" font-family="Times,serif"
                font-size="14.00"> </text>
            <text text-anchor="start" x="65.01" y="-30.4" font-family="Times,serif"
                font-style="italic" font-size="9.00">AnalogItemType</text>
            <text text-anchor="start" x="72.79" y="-16.4" font-family="Times,serif"
                font-size="14.00">Torque</text>
            <text text-anchor="start" x="79.25" y="-2.4" font-family="Times,serif" font-size="9.00">
                (Nm)</text>
            <text text-anchor="start" x="103.25" y="-2.4" font-family="Times,serif"
                font-size="14.00"> </text>
        </g>
        <!-- r2_1 -->
        <!-- #Variable -->
        <!-- _RoboticEquipment_Motor1_Torque&#45;&gt;r2_1 -->
        <!-- HasComponent -->
        <g id="edge11" class="edge">
            <title>_RoboticEquipment_Motor1_Torque->r2_1</title>
            <path fill="none" stroke="black" d="M182.64,-21C183.67,-21 184.69,-21 185.72,-21"></path>
            <polyline fill="none" stroke="black" points="167.84,-21 172.84,-21"></polyline>
            <polygon fill="black" stroke="black"
                points="173.84,-26 173.84,-16 175.84,-16 175.84,-26 173.84,-26"></polygon>
            <polyline fill="none" stroke="black" points="172.84,-21 177.84,-21"></polyline>
            <polygon fill="black" stroke="black"
                points="178.84,-26 178.84,-16 180.84,-16 180.84,-26 178.84,-26"></polygon>
            <polyline fill="none" stroke="black" points="177.84,-21 182.84,-21"></polyline>
        </g>
        <!-- r0_0&#45;&gt;_RoboticEquipment_Sensor -->
        <!-- HasComponent -->
        <g id="edge16" class="edge">
            <title>r0_0->_RoboticEquipment_Sensor</title>
            <path fill="none" stroke="black" d="M278.28,-118C343.65,-118 409.02,-118 474.39,-118"></path>
            <polyline fill="none" stroke="black" points="489.22,-118 484.22,-118"></polyline>
            <polygon fill="black" stroke="black"
                points="483.22,-113 483.22,-123 481.22,-123 481.22,-113 483.22,-113"></polygon>
            <polyline fill="none" stroke="black" points="484.22,-118 479.22,-118"></polyline>
            <polygon fill="black" stroke="black"
                points="478.22,-113 478.22,-123 476.22,-123 476.22,-113 478.22,-113"></polygon>
            <polyline fill="none" stroke="black" points="479.22,-118 474.22,-118"></polyline>
        </g>
        <!-- r0_1 -->
        <!-- #Variable -->
        <!-- r0_0&#45;&gt;r0_1 -->
        <!-- r1_0&#45;&gt;_RoboticEquipment_Sensor_Temperature -->
        <!-- HasComponent -->
        <g id="edge1" class="edge">
            <title>r1_0->_RoboticEquipment_Sensor_Temperature</title>
            <path fill="none" stroke="black" d="M564.38,-71C565.19,-71 566.01,-71 566.82,-71"></path>
            <polyline fill="none" stroke="black" points="581.74,-71 576.74,-71"></polyline>
            <polygon fill="black" stroke="black"
                points="575.74,-66 575.74,-76 573.74,-76 573.74,-66 575.74,-66"></polygon>
            <polyline fill="none" stroke="black" points="576.74,-71 571.74,-71"></polyline>
            <polygon fill="black" stroke="black"
                points="570.74,-66 570.74,-76 568.74,-76 568.74,-66 570.74,-66"></polygon>
            <polyline fill="none" stroke="black" points="571.74,-71 566.74,-71"></polyline>
        </g>
        <!-- r1_0&#45;&gt;r0_1 -->
        <!-- spine -->
        <!-- r0_1&#45;&gt;r1_0 -->
        <!-- spine -->
        <!-- r0_1&#45;&gt;r2_0 -->
        <!-- spine -->
        <!-- r0_2 -->
        <!-- #Variable -->
        <!-- r0_1&#45;&gt;r0_2 -->
        <!-- r2_0&#45;&gt;_RoboticEquipment_Motor1_State -->
        <!-- HasComponent -->
        <g id="edge6" class="edge">
            <title>r2_0->_RoboticEquipment_Motor1_State</title>
            <path fill="none" stroke="black" d="M186.41,-71C187.21,-71 188.02,-71 188.82,-71"></path>
            <polyline fill="none" stroke="black" points="203.57,-71 198.57,-71"></polyline>
            <polygon fill="black" stroke="black"
                points="197.57,-66 197.57,-76 195.57,-76 195.57,-66 197.57,-66"></polygon>
            <polyline fill="none" stroke="black" points="198.57,-71 193.57,-71"></polyline>
            <polygon fill="black" stroke="black"
                points="192.57,-66 192.57,-76 190.57,-76 190.57,-66 192.57,-66"></polygon>
            <polyline fill="none" stroke="black" points="193.57,-71 188.57,-71"></polyline>
        </g>
        <!-- r2_0&#45;&gt;r0_1 -->
        <!-- spine -->
        <!-- r2_0&#45;&gt;r2_1 -->
        <g id="edge15" class="edge">
            <title>r2_0->r2_1</title>
            <path fill="none" stroke="black" d="M186,-69.86C186,-67.13 186,-24.77 186,-22.13"></path>
        </g>
        <!-- r2_1&#45;&gt;_RoboticEquipment_Motor1_Speed -->
        <!-- HasComponent -->
        <g id="edge7" class="edge">
            <title>r2_1->_RoboticEquipment_Motor1_Speed</title>
            <path fill="none" stroke="black" d="M186.41,-21C187.21,-21 188.02,-21 188.82,-21"></path>
            <polyline fill="none" stroke="black" points="203.57,-21 198.57,-21"></polyline>
            <polygon fill="black" stroke="black"
                points="197.57,-16 197.57,-26 195.57,-26 195.57,-16 197.57,-16"></polygon>
            <polyline fill="none" stroke="black" points="198.57,-21 193.57,-21"></polyline>
            <polygon fill="black" stroke="black"
                points="192.57,-16 192.57,-26 190.57,-26 190.57,-16 192.57,-16"></polygon>
            <polyline fill="none" stroke="black" points="193.57,-21 188.57,-21"></polyline>
        </g>
        <!-- r2_1&#45;&gt;r0_2 -->
        <!-- spine -->
        <!-- r0_2&#45;&gt;r2_1 -->
        <!-- spine -->
    </g>
</svg>
